<?xml version="1.0" encoding="UTF-8" standalone="no"?>
<svg width="3060px" height="3960px" viewBox="0 0 3060 3960"
 xmlns="http://www.w3.org/2000/svg" xmlns:xlink="http://www.w3.org/1999/xlink" version="1.2" baseProfile="tiny">
<title>Exercise-03</title>
<desc>Generated by MuseScore 4.0.2</desc>
<path class="" fill="#ffffff" fill-rule="evenodd" d="M0,0 L3060,0 L3060,3960 L0,3960 L0,0 "/>
<polyline class="StaffLines" fill="none" stroke="#000000" stroke-width="2.73" stroke-linejoin="bevel" points="336.599,504.13 2847.4,504.13"/>
<polyline class="StaffLines" fill="none" stroke="#000000" stroke-width="2.73" stroke-linejoin="bevel" points="336.599,528.93 2847.4,528.93"/>
<polyline class="StaffLines" fill="none" stroke="#000000" stroke-width="2.73" stroke-linejoin="bevel" points="336.599,553.73 2847.4,553.73"/>
<polyline class="StaffLines" fill="none" stroke="#000000" stroke-width="2.73" stroke-linejoin="bevel" points="336.599,578.53 2847.4,578.53"/>
<polyline class="StaffLines" fill="none" stroke="#000000" stroke-width="2.73" stroke-linejoin="bevel" points="336.599,603.33 2847.4,603.33"/>
<polyline class="StaffLines" fill="none" stroke="#000000" stroke-width="2.73" stroke-linejoin="bevel" points="336.599,764.53 2847.4,764.53"/>
<polyline class="StaffLines" fill="none" stroke="#000000" stroke-width="2.73" stroke-linejoin="bevel" points="336.599,789.33 2847.4,789.33"/>
<polyline class="StaffLines" fill="none" stroke="#000000" stroke-width="2.73" stroke-linejoin="bevel" points="336.599,814.13 2847.4,814.13"/>
<polyline class="StaffLines" fill="none" stroke="#000000" stroke-width="2.73" stroke-linejoin="bevel" points="336.599,838.93 2847.4,838.93"/>
<polyline class="StaffLines" fill="none" stroke="#000000" stroke-width="2.73" stroke-linejoin="bevel" points="336.599,863.73 2847.4,863.73"/>
<polyline class="StaffLines" fill="none" stroke="#000000" stroke-width="2.73" stroke-linejoin="bevel" points="212.598,1459.42 2847.4,1459.42"/>
<polyline class="StaffLines" fill="none" stroke="#000000" stroke-width="2.73" stroke-linejoin="bevel" points="212.598,1484.22 2847.4,1484.22"/>
<polyline class="StaffLines" fill="none" stroke="#000000" stroke-width="2.73" stroke-linejoin="bevel" points="212.598,1509.02 2847.4,1509.02"/>
<polyline class="StaffLines" fill="none" stroke="#000000" stroke-width="2.73" stroke-linejoin="bevel" points="212.598,1533.82 2847.4,1533.82"/>
<polyline class="StaffLines" fill="none" stroke="#000000" stroke-width="2.73" stroke-linejoin="bevel" points="212.598,1558.62 2847.4,1558.62"/>
<polyline class="StaffLines" fill="none" stroke="#000000" stroke-width="2.73" stroke-linejoin="bevel" points="212.598,1719.82 2847.4,1719.82"/>
<polyline class="StaffLines" fill="none" stroke="#000000" stroke-width="2.73" stroke-linejoin="bevel" points="212.598,1744.62 2847.4,1744.62"/>
<polyline class="StaffLines" fill="none" stroke="#000000" stroke-width="2.73" stroke-linejoin="bevel" points="212.598,1769.42 2847.4,1769.42"/>
<polyline class="StaffLines" fill="none" stroke="#000000" stroke-width="2.73" stroke-linejoin="bevel" points="212.598,1794.22 2847.4,1794.22"/>
<polyline class="StaffLines" fill="none" stroke="#000000" stroke-width="2.73" stroke-linejoin="bevel" points="212.598,1819.02 2847.4,1819.02"/>
<path class="Text" d="M1272.77,226.183 L1206.66,226.183 L1206.66,231.355 L1208.64,231.355 C1214.91,231.465 1217,231.793 1217.88,232.902 C1218.53,233.886 1218.53,234.105 1218.53,239.715 L1218.53,292.074 C1218.53,297.683 1218.53,297.902 1217.88,298.902 C1217,299.996 1214.91,300.433 1208.64,300.433 L1206.66,300.433 L1206.66,305.605 L1274.21,305.605 L1276.41,276.23 L1271.57,276.23 C1267.38,295.808 1262.88,299.996 1246.03,300.433 L1238.78,300.433 C1232.17,300.215 1230.53,299.121 1230.86,295.152 L1230.86,267.105 L1233.07,267.105 C1244.39,266.668 1248.46,270.73 1248.91,282.949 L1254.07,282.949 L1254.07,246.871 L1248.91,246.871 C1248.24,257.652 1243.96,261.933 1233.5,261.933 L1230.86,261.933 L1230.86,236.855 C1230.75,232.23 1231.85,231.465 1237.78,231.355 L1243.52,231.355 C1261.55,231.246 1266.07,235.199 1269.58,254.23 L1274.32,254.23 L1272.77,226.183 M1316.46,277.558 L1329,262.918 C1331.75,259.73 1334.28,258.308 1337.25,258.308 L1338.24,258.308 L1338.24,254.34 L1315.47,254.34 L1315.47,258.308 L1317.57,258.308 C1320.86,258.308 1322.52,259.074 1322.52,260.73 C1322.52,261.824 1321.74,263.371 1320.32,265.121 L1313.38,273.48 L1304.91,262.699 C1304.25,261.824 1303.82,260.949 1303.82,260.293 C1303.82,258.855 1305.24,258.308 1308.66,258.308 L1310.19,258.308 L1310.19,254.34 L1284.13,254.34 L1284.13,258.308 C1288.19,258.636 1289.74,259.621 1293.25,264.246 L1306.67,281.074 L1294.02,295.808 C1290.28,299.996 1287.1,301.761 1284.13,301.652 L1283.46,301.652 L1283.46,305.605 L1306.67,305.605 L1306.67,301.652 L1305.02,301.652 C1302.49,301.652 1301.94,301.543 1301.17,301.199 C1300.28,300.652 1299.63,299.668 1299.63,298.668 C1299.63,297.902 1299.96,296.918 1300.52,296.261 L1309.75,285.261 L1318.11,296.371 C1318.88,297.465 1319.53,298.902 1319.53,299.668 C1319.53,301.09 1317.89,301.652 1313.71,301.652 L1312.94,301.652 L1312.94,305.605 L1340.66,305.605 L1340.66,301.652 L1339.89,301.652 C1336.03,301.652 1333.52,300.215 1330.32,296.261 L1316.46,277.558 M1389.63,280.855 C1389.74,264.355 1380.38,252.699 1366.96,252.699 C1352.88,252.699 1342.32,264.902 1342.32,281.402 C1342.32,296.918 1352.33,307.261 1367.17,307.261 C1377.74,307.261 1385.11,302.09 1389.63,291.636 L1385.77,289.543 C1381.27,298.011 1376.64,301.308 1369.27,301.308 C1363.66,301.308 1359.6,299.011 1356.74,294.058 C1354.75,290.761 1353.88,286.902 1353.99,280.855 L1389.63,280.855 M1354.1,276.121 C1354.1,268.418 1357.61,257.418 1366.85,257.418 C1373.46,257.418 1377.85,263.261 1377.85,272.168 C1377.85,275.246 1376.86,276.121 1373.35,276.121 L1354.1,276.121 M1415.25,254.34 L1395.78,255.558 L1395.78,260.293 L1400.28,260.293 C1404.47,260.402 1405.02,261.058 1405.02,265.793 L1405.02,297.246 C1404.91,298.902 1404.8,299.558 1404.36,300.105 C1403.6,301.09 1401.39,301.543 1396.66,301.652 L1396.22,301.652 L1396.22,305.605 L1425.6,305.605 L1425.6,301.652 L1423.61,301.652 C1416.24,301.418 1415.25,300.871 1415.25,296.918 L1415.25,290.98 C1415.36,272.496 1421.96,258.418 1430.53,257.98 C1429,259.73 1428.57,260.84 1428.57,262.918 C1428.57,266.449 1431.1,268.98 1434.61,268.98 C1438.67,268.98 1441.32,266.011 1441.32,261.605 C1441.32,256.215 1437.58,252.699 1431.75,252.699 C1424.82,252.699 1418.88,258.199 1415.25,267.98 L1415.25,254.34 M1484.03,289.433 C1480.52,297.355 1476.78,300.543 1471.07,300.543 C1462.27,300.543 1456.77,292.511 1456.77,279.652 C1456.77,266.23 1462.16,257.418 1470.28,257.418 C1473.6,257.418 1476.46,258.965 1476.46,260.73 C1476.46,261.058 1476.35,261.386 1475.78,262.043 C1474.03,264.136 1473.6,265.23 1473.6,267.105 C1473.6,270.73 1476.35,273.261 1480.19,273.261 C1484.16,273.261 1486.91,270.183 1486.91,265.793 C1486.91,258.308 1479.53,252.699 1469.74,252.699 C1455.44,252.699 1445.21,264.355 1445.21,280.855 C1445.21,296.48 1454.57,307.261 1468.21,307.261 C1477.99,307.261 1483.6,302.746 1488.33,291.09 L1484.03,289.433 M1507.96,226.949 C1504.44,226.949 1501.58,229.808 1501.58,233.34 C1501.58,236.855 1504.44,239.715 1507.85,239.715 C1511.49,239.715 1514.35,236.855 1514.35,233.34 C1514.35,229.808 1511.49,226.949 1507.96,226.949 M1513.13,254.34 L1492.46,255.558 L1492.46,260.293 L1498.07,260.293 C1502.24,260.402 1502.78,261.058 1502.78,265.793 L1502.78,297.246 C1502.67,298.902 1502.57,299.558 1502.13,300.105 C1501.36,301.09 1499.27,301.543 1494.53,301.652 L1493.77,301.652 L1493.77,305.605 L1522.27,305.605 L1522.27,301.652 L1521.49,301.652 C1514.13,301.418 1513.13,300.871 1513.13,296.918 L1513.13,254.34 M1568.38,253.136 L1564.52,253.136 L1561.33,257.09 C1557.38,254.011 1553.41,252.699 1547.91,252.699 C1538.24,252.699 1531.85,258.965 1531.85,268.652 C1531.85,278.98 1538.57,281.621 1547.36,283.715 L1553.19,285.043 C1561.88,287.121 1564.96,289.324 1564.96,293.73 C1564.96,298.902 1560.46,302.527 1554.07,302.527 C1544.72,302.527 1538.13,296.59 1535.49,285.59 L1531.08,285.59 L1531.08,306.371 L1534.92,306.371 L1538.78,301.871 C1543.28,305.496 1548.24,307.261 1553.85,307.261 C1564.63,307.261 1571.78,300.543 1571.78,290.308 C1571.78,285.48 1570.24,281.73 1567.16,279.199 C1564.52,276.902 1562.32,276.011 1555.61,274.59 L1550.11,273.371 C1544.07,272.058 1544.07,272.058 1542.08,270.949 C1539.66,269.855 1538.24,267.543 1538.24,265.121 C1538.24,260.621 1542.41,257.543 1548.46,257.543 C1557.49,257.543 1561.88,263.918 1564.52,271.621 L1568.38,271.621 L1568.38,253.136 M1627.63,280.855 C1627.74,264.355 1618.38,252.699 1604.96,252.699 C1590.88,252.699 1580.32,264.902 1580.32,281.402 C1580.32,296.918 1590.33,307.261 1605.17,307.261 C1615.74,307.261 1623.11,302.09 1627.63,291.636 L1623.77,289.543 C1619.27,298.011 1614.64,301.308 1607.27,301.308 C1601.66,301.308 1597.6,299.011 1594.74,294.058 C1592.75,290.761 1591.88,286.902 1591.99,280.855 L1627.63,280.855 M1592.1,276.121 C1592.1,268.418 1595.61,257.418 1604.85,257.418 C1611.46,257.418 1615.85,263.261 1615.85,272.168 C1615.85,275.246 1614.86,276.121 1611.35,276.121 L1592.1,276.121 M1638.1,275.027 L1638.1,284.152 L1665.49,284.152 L1665.49,275.027 L1638.1,275.027 M1701.71,228.168 C1686.32,228.168 1675.1,244.886 1675.1,267.98 C1675.1,290.652 1685.99,307.261 1700.83,307.261 C1716.24,307.261 1727.02,291.199 1727.02,268.308 C1727.02,256.652 1724.6,246.98 1719.97,239.386 C1715.67,232.449 1708.64,228.168 1701.71,228.168 M1700.94,232.902 C1704.57,232.902 1708.1,235.308 1710.74,239.715 C1713.71,244.886 1714.69,251.152 1714.69,266.23 C1714.69,281.73 1713.92,288.996 1711.72,293.84 C1709.19,299.23 1705.24,302.527 1701.05,302.527 C1697.32,302.527 1693.91,300.105 1691.27,295.699 C1688.17,290.543 1687.3,283.715 1687.3,265.668 C1687.3,252.808 1688.07,246.418 1690.27,241.59 C1692.8,236.09 1696.77,232.902 1700.94,232.902 M1769.53,265.121 C1779.53,261.496 1784.16,255.886 1784.16,247.09 C1784.16,235.527 1775.36,228.168 1761.72,228.168 C1748.85,228.168 1739.07,235.761 1739.07,245.761 C1739.07,250.277 1742.03,253.465 1746.32,253.465 C1750.17,253.465 1752.82,250.824 1752.82,246.871 C1752.82,244.449 1751.92,243.011 1749.41,241.261 C1748.3,240.48 1747.97,240.043 1747.97,239.277 C1747.97,236.199 1754.35,232.902 1760.63,232.902 C1768.53,232.902 1772.72,237.84 1772.72,247.199 C1772.72,257.418 1768.53,262.808 1760.74,262.808 C1759.74,262.808 1757.88,262.699 1756.22,262.59 C1755.35,262.48 1754.46,262.48 1753.8,262.48 C1751.49,262.48 1750.28,263.48 1750.28,265.449 C1750.28,267.324 1751.38,268.199 1753.8,268.199 C1754.46,268.199 1755.35,268.199 1756.33,268.09 C1758.53,267.98 1760.28,267.98 1761.5,267.98 C1769.64,267.98 1774.03,273.808 1774.03,284.699 C1774.03,296.152 1768.53,302.527 1758.64,302.527 C1751.71,302.527 1744.24,298.793 1744.24,295.371 C1744.24,294.386 1744.46,294.168 1746.53,292.949 C1749.63,291.09 1750.83,289.215 1750.83,286.465 C1750.83,282.511 1747.86,279.543 1743.91,279.543 C1739.17,279.543 1736.1,283.386 1736.1,289.215 C1736.1,299.886 1745.88,307.261 1759.96,307.261 C1775.91,307.261 1786.25,298.449 1786.25,284.918 C1786.25,274.59 1780.97,268.308 1769.53,265.121"/>
<path class="MeasureNumber" d="M217.911,1396.42 C218.598,1392.89 219.395,1390.71 220.911,1388.02 C222.723,1384.86 224.88,1383.25 227.27,1383.25 C228.52,1383.25 229.27,1383.74 229.27,1384.5 C229.27,1384.78 229.192,1384.94 228.911,1385.46 C228.551,1386.14 228.395,1386.61 228.395,1387.22 C228.395,1388.5 229.348,1389.38 230.708,1389.38 C232.348,1389.38 233.473,1388.17 233.473,1386.38 C233.473,1383.66 230.911,1381.66 227.348,1381.66 C218.442,1381.66 213.036,1393.3 213.036,1400.97 C213.036,1406.86 215.958,1410.41 220.833,1410.41 C226.833,1410.41 231.27,1405.46 231.27,1399.58 C231.27,1395.5 228.52,1392.66 224.52,1392.66 C221.723,1392.66 219.551,1393.86 217.911,1396.42 M223.239,1394.97 C225.723,1394.97 227.083,1396.69 227.083,1399.82 C227.083,1404.89 224.395,1408.77 220.833,1408.77 C218.27,1408.77 216.755,1406.89 216.755,1403.69 C216.755,1398.69 219.52,1394.97 223.239,1394.97"/>
<path class="SlurSegment" stroke="#000000" stroke-width="1.24" stroke-linecap="round" stroke-linejoin="round" fill-rule="evenodd" d="M323.943,1436.01 C562.021,1339.12 1661.38,1365.92 1894.45,1474.3 C1661.18,1373.86 561.828,1347.05 323.943,1436.01"/>
<path class="SlurSegment" stroke="#000000" stroke-width="1.24" stroke-linecap="round" stroke-linejoin="round" fill-rule="evenodd" d="M556.114,519.01 C895.477,388.543 2491.91,353.061 2836.74,468.321 C2492.09,360.995 895.653,396.477 556.114,519.01"/>
<polyline class="BarLine" stroke="#000000" stroke-width="4.46" stroke-linejoin="bevel" points="2333.11,1458.05 2333.11,1719.82"/>
<polyline class="BarLine" stroke="#000000" stroke-width="4.46" stroke-linejoin="bevel" points="971.548,502.766 971.548,764.53"/>
<polyline class="BarLine" stroke="#000000" stroke-width="4.46" stroke-linejoin="bevel" points="2822.35,1458.05 2822.35,1719.82"/>
<polyline class="BarLine" stroke="#000000" stroke-width="13.64" stroke-linejoin="bevel" points="2840.58,1458.05 2840.58,1719.82"/>
<polyline class="BarLine" stroke="#000000" stroke-width="4.46" stroke-linejoin="bevel" points="338.831,502.766 338.831,764.53"/>
<polyline class="BarLine" stroke="#000000" stroke-width="4.46" stroke-linejoin="bevel" points="1908.36,502.766 1908.36,764.53"/>
<polyline class="BarLine" stroke="#000000" stroke-width="4.46" stroke-linejoin="bevel" points="214.83,1458.05 214.83,1719.82"/>
<polyline class="BarLine" stroke="#000000" stroke-width="4.46" stroke-linejoin="bevel" points="1439.95,502.766 1439.95,764.53"/>
<polyline class="BarLine" stroke="#000000" stroke-width="4.46" stroke-linejoin="bevel" points="2376.76,502.766 2376.76,764.53"/>
<polyline class="BarLine" stroke="#000000" stroke-width="4.46" stroke-linejoin="bevel" points="815.916,1458.05 815.916,1719.82"/>
<polyline class="BarLine" stroke="#000000" stroke-width="4.46" stroke-linejoin="bevel" points="1307.54,1458.05 1307.54,1719.82"/>
<path class="BarLine" transform="matrix(0.992001,0,0,0.992001,1796.94,1496.62)" d="M10.4063,0 C10.4063,-2.90625 8.09375,-5.29688 5.20313,-5.29688 C2.29688,-5.29688 0,-2.90625 0,0 C0,2.90625 2.29688,5.29688 5.20313,5.29688 C8.09375,5.29688 10.4063,2.90625 10.4063,0"/>
<path class="BarLine" transform="matrix(0.992001,0,0,0.992001,1796.94,1521.42)" d="M10.4063,0 C10.4063,-2.90625 8.09375,-5.29688 5.20313,-5.29688 C2.29688,-5.29688 0,-2.90625 0,0 C0,2.90625 2.29688,5.29688 5.20313,5.29688 C8.09375,5.29688 10.4063,2.90625 10.4063,0"/>
<polyline class="BarLine" stroke="#000000" stroke-width="4.46" stroke-linejoin="bevel" points="1818.66,1458.05 1818.66,1719.82"/>
<polyline class="BarLine" stroke="#000000" stroke-width="13.64" stroke-linejoin="bevel" points="1836.89,1458.05 1836.89,1719.82"/>
<polyline class="BarLine" stroke="#000000" stroke-width="4.46" stroke-linejoin="bevel" points="2845.17,502.766 2845.17,764.53"/>
<polyline class="BarLine" stroke="#000000" stroke-width="4.46" stroke-linejoin="bevel" points="2845.17,763.166 2845.17,865.094"/>
<polyline class="BarLine" stroke="#000000" stroke-width="4.46" stroke-linejoin="bevel" points="1439.95,763.166 1439.95,865.094"/>
<polyline class="BarLine" stroke="#000000" stroke-width="4.46" stroke-linejoin="bevel" points="338.831,763.166 338.831,865.094"/>
<polyline class="BarLine" stroke="#000000" stroke-width="4.46" stroke-linejoin="bevel" points="815.916,1718.45 815.916,1820.38"/>
<polyline class="BarLine" stroke="#000000" stroke-width="4.46" stroke-linejoin="bevel" points="214.83,1718.45 214.83,1820.38"/>
<polyline class="BarLine" stroke="#000000" stroke-width="4.46" stroke-linejoin="bevel" points="1908.36,763.166 1908.36,865.094"/>
<polyline class="BarLine" stroke="#000000" stroke-width="4.46" stroke-linejoin="bevel" points="971.548,763.166 971.548,865.094"/>
<polyline class="BarLine" stroke="#000000" stroke-width="4.46" stroke-linejoin="bevel" points="1307.54,1718.45 1307.54,1820.38"/>
<path class="BarLine" transform="matrix(0.992001,0,0,0.992001,1796.94,1757.02)" d="M10.4063,0 C10.4063,-2.90625 8.09375,-5.29688 5.20313,-5.29688 C2.29688,-5.29688 0,-2.90625 0,0 C0,2.90625 2.29688,5.29688 5.20313,5.29688 C8.09375,5.29688 10.4063,2.90625 10.4063,0"/>
<path class="BarLine" transform="matrix(0.992001,0,0,0.992001,1796.94,1781.82)" d="M10.4063,0 C10.4063,-2.90625 8.09375,-5.29688 5.20313,-5.29688 C2.29688,-5.29688 0,-2.90625 0,0 C0,2.90625 2.29688,5.29688 5.20313,5.29688 C8.09375,5.29688 10.4063,2.90625 10.4063,0"/>
<polyline class="BarLine" stroke="#000000" stroke-width="4.46" stroke-linejoin="bevel" points="1818.66,1718.45 1818.66,1820.38"/>
<polyline class="BarLine" stroke="#000000" stroke-width="13.64" stroke-linejoin="bevel" points="1836.89,1718.45 1836.89,1820.38"/>
<polyline class="BarLine" stroke="#000000" stroke-width="4.46" stroke-linejoin="bevel" points="2376.76,763.166 2376.76,865.094"/>
<polyline class="BarLine" stroke="#000000" stroke-width="4.46" stroke-linejoin="bevel" points="2333.11,1718.45 2333.11,1820.38"/>
<polyline class="BarLine" stroke="#000000" stroke-width="4.46" stroke-linejoin="bevel" points="2822.35,1718.45 2822.35,1820.38"/>
<polyline class="BarLine" stroke="#000000" stroke-width="13.64" stroke-linejoin="bevel" points="2840.58,1718.45 2840.58,1820.38"/>
<polyline class="LedgerLine" stroke="#000000" stroke-width="3.97" stroke-linejoin="bevel" points="529.43,888.53 582.797,888.53"/>
<polyline class="LedgerLine" stroke="#000000" stroke-width="3.97" stroke-linejoin="bevel" points="1867.77,1843.82 1921.14,1843.82"/>
<path class="Note" transform="matrix(0.992001,0,0,0.992001,1006.02,528.93)" d="M18.7031,-13.5938 C4.90625,-13.5938 0,-6.59375 0,-0.09375 C0,6.40625 4.90625,13.4063 18.7031,13.4063 C32.5,13.4063 37.2969,6.40625 37.2969,-0.09375 C37.2969,-6.59375 32.5,-13.5938 18.7031,-13.5938 M19.5,10.2031 C16.7031,10.2031 14.7969,9.40625 13.5,6.90625 C12.2031,4.40625 10.4063,-2.09375 10.2969,-4.70313 C10.0938,-7.40625 11.0938,-9 13.5,-9.79688 C14.7031,-10.2031 16.2969,-10.4063 17.9063,-10.4063 C20.5938,-10.4063 22.4063,-9.79688 23.7969,-7.09375 C25.2031,-4.5 27.1094,2 27.1094,4.5 C27.1094,9.40625 23.5,10.2031 19.5,10.2031"/>
<path class="Note" transform="matrix(0.992001,0,0,0.992001,358.76,1459.42)" d="M18.7031,-13.5938 C4.90625,-13.5938 0,-6.59375 0,-0.09375 C0,6.40625 4.90625,13.4063 18.7031,13.4063 C32.5,13.4063 37.2969,6.40625 37.2969,-0.09375 C37.2969,-6.59375 32.5,-13.5938 18.7031,-13.5938 M19.5,10.2031 C16.7031,10.2031 14.7969,9.40625 13.5,6.90625 C12.2031,4.40625 10.4063,-2.09375 10.2969,-4.70313 C10.0938,-7.40625 11.0938,-9 13.5,-9.79688 C14.7031,-10.2031 16.2969,-10.4063 17.9063,-10.4063 C20.5938,-10.4063 22.4063,-9.79688 23.7969,-7.09375 C25.2031,-4.5 27.1094,2 27.1094,4.5 C27.1094,9.40625 23.5,10.2031 19.5,10.2031"/>
<path class="Note" transform="matrix(0.992001,0,0,0.992001,1875.95,1496.62)" d="M18.7031,-13.5938 C4.90625,-13.5938 0,-6.59375 0,-0.09375 C0,6.40625 4.90625,13.4063 18.7031,13.4063 C32.5,13.4063 37.2969,6.40625 37.2969,-0.09375 C37.2969,-6.59375 32.5,-13.5938 18.7031,-13.5938 M19.5,10.2031 C16.7031,10.2031 14.7969,9.40625 13.5,6.90625 C12.2031,4.40625 10.4063,-2.09375 10.2969,-4.70313 C10.0938,-7.40625 11.0938,-9 13.5,-9.79688 C14.7031,-10.2031 16.2969,-10.4063 17.9063,-10.4063 C20.5938,-10.4063 22.4063,-9.79688 23.7969,-7.09375 C25.2031,-4.5 27.1094,2 27.1094,4.5 C27.1094,9.40625 23.5,10.2031 19.5,10.2031"/>
<path class="Note" transform="matrix(0.992001,0,0,0.992001,537.614,541.33)" d="M18.7031,-13.5938 C4.90625,-13.5938 0,-6.59375 0,-0.09375 C0,6.40625 4.90625,13.4063 18.7031,13.4063 C32.5,13.4063 37.2969,6.40625 37.2969,-0.09375 C37.2969,-6.59375 32.5,-13.5938 18.7031,-13.5938 M19.5,10.2031 C16.7031,10.2031 14.7969,9.40625 13.5,6.90625 C12.2031,4.40625 10.4063,-2.09375 10.2969,-4.70313 C10.0938,-7.40625 11.0938,-9 13.5,-9.79688 C14.7031,-10.2031 16.2969,-10.4063 17.9063,-10.4063 C20.5938,-10.4063 22.4063,-9.79688 23.7969,-7.09375 C25.2031,-4.5 27.1094,2 27.1094,4.5 C27.1094,9.40625 23.5,10.2031 19.5,10.2031"/>
<path class="Note" transform="matrix(0.992001,0,0,0.992001,1942.83,504.13)" d="M18.7031,-13.5938 C4.90625,-13.5938 0,-6.59375 0,-0.09375 C0,6.40625 4.90625,13.4063 18.7031,13.4063 C32.5,13.4063 37.2969,6.40625 37.2969,-0.09375 C37.2969,-6.59375 32.5,-13.5938 18.7031,-13.5938 M19.5,10.2031 C16.7031,10.2031 14.7969,9.40625 13.5,6.90625 C12.2031,4.40625 10.4063,-2.09375 10.2969,-4.70313 C10.0938,-7.40625 11.0938,-9 13.5,-9.79688 C14.7031,-10.2031 16.2969,-10.4063 17.9063,-10.4063 C20.5938,-10.4063 22.4063,-9.79688 23.7969,-7.09375 C25.2031,-4.5 27.1094,2 27.1094,4.5 C27.1094,9.40625 23.5,10.2031 19.5,10.2031"/>
<path class="Note" transform="matrix(0.992001,0,0,0.992001,1474.43,516.53)" d="M18.7031,-13.5938 C4.90625,-13.5938 0,-6.59375 0,-0.09375 C0,6.40625 4.90625,13.4063 18.7031,13.4063 C32.5,13.4063 37.2969,6.40625 37.2969,-0.09375 C37.2969,-6.59375 32.5,-13.5938 18.7031,-13.5938 M19.5,10.2031 C16.7031,10.2031 14.7969,9.40625 13.5,6.90625 C12.2031,4.40625 10.4063,-2.09375 10.2969,-4.70313 C10.0938,-7.40625 11.0938,-9 13.5,-9.79688 C14.7031,-10.2031 16.2969,-10.4063 17.9063,-10.4063 C20.5938,-10.4063 22.4063,-9.79688 23.7969,-7.09375 C25.2031,-4.5 27.1094,2 27.1094,4.5 C27.1094,9.40625 23.5,10.2031 19.5,10.2031"/>
<path class="Note" transform="matrix(0.992001,0,0,0.992001,1342.02,1484.22)" d="M18.7031,-13.5938 C4.90625,-13.5938 0,-6.59375 0,-0.09375 C0,6.40625 4.90625,13.4063 18.7031,13.4063 C32.5,13.4063 37.2969,6.40625 37.2969,-0.09375 C37.2969,-6.59375 32.5,-13.5938 18.7031,-13.5938 M19.5,10.2031 C16.7031,10.2031 14.7969,9.40625 13.5,6.90625 C12.2031,4.40625 10.4063,-2.09375 10.2969,-4.70313 C10.0938,-7.40625 11.0938,-9 13.5,-9.79688 C14.7031,-10.2031 16.2969,-10.4063 17.9063,-10.4063 C20.5938,-10.4063 22.4063,-9.79688 23.7969,-7.09375 C25.2031,-4.5 27.1094,2 27.1094,4.5 C27.1094,9.40625 23.5,10.2031 19.5,10.2031"/>
<path class="Note" transform="matrix(0.992001,0,0,0.992001,2411.24,491.73)" d="M18.7031,-13.5938 C4.90625,-13.5938 0,-6.59375 0,-0.09375 C0,6.40625 4.90625,13.4063 18.7031,13.4063 C32.5,13.4063 37.2969,6.40625 37.2969,-0.09375 C37.2969,-6.59375 32.5,-13.5938 18.7031,-13.5938 M19.5,10.2031 C16.7031,10.2031 14.7969,9.40625 13.5,6.90625 C12.2031,4.40625 10.4063,-2.09375 10.2969,-4.70313 C10.0938,-7.40625 11.0938,-9 13.5,-9.79688 C14.7031,-10.2031 16.2969,-10.4063 17.9063,-10.4063 C20.5938,-10.4063 22.4063,-9.79688 23.7969,-7.09375 C25.2031,-4.5 27.1094,2 27.1094,4.5 C27.1094,9.40625 23.5,10.2031 19.5,10.2031"/>
<path class="Note" transform="matrix(0.992001,0,0,0.992001,850.388,1471.82)" d="M18.7031,-13.5938 C4.90625,-13.5938 0,-6.59375 0,-0.09375 C0,6.40625 4.90625,13.4063 18.7031,13.4063 C32.5,13.4063 37.2969,6.40625 37.2969,-0.09375 C37.2969,-6.59375 32.5,-13.5938 18.7031,-13.5938 M19.5,10.2031 C16.7031,10.2031 14.7969,9.40625 13.5,6.90625 C12.2031,4.40625 10.4063,-2.09375 10.2969,-4.70313 C10.0938,-7.40625 11.0938,-9 13.5,-9.79688 C14.7031,-10.2031 16.2969,-10.4063 17.9063,-10.4063 C20.5938,-10.4063 22.4063,-9.79688 23.7969,-7.09375 C25.2031,-4.5 27.1094,2 27.1094,4.5 C27.1094,9.40625 23.5,10.2031 19.5,10.2031"/>
<path class="Note" transform="matrix(0.992001,0,0,0.992001,1006.02,876.13)" d="M18.7031,-13.5938 C4.90625,-13.5938 0,-6.59375 0,-0.09375 C0,6.40625 4.90625,13.4063 18.7031,13.4063 C32.5,13.4063 37.2969,6.40625 37.2969,-0.09375 C37.2969,-6.59375 32.5,-13.5938 18.7031,-13.5938 M19.5,10.2031 C16.7031,10.2031 14.7969,9.40625 13.5,6.90625 C12.2031,4.40625 10.4063,-2.09375 10.2969,-4.70313 C10.0938,-7.40625 11.0938,-9 13.5,-9.79688 C14.7031,-10.2031 16.2969,-10.4063 17.9063,-10.4063 C20.5938,-10.4063 22.4063,-9.79688 23.7969,-7.09375 C25.2031,-4.5 27.1094,2 27.1094,4.5 C27.1094,9.40625 23.5,10.2031 19.5,10.2031"/>
<path class="Note" transform="matrix(0.992001,0,0,0.992001,1474.43,863.73)" d="M18.7031,-13.5938 C4.90625,-13.5938 0,-6.59375 0,-0.09375 C0,6.40625 4.90625,13.4063 18.7031,13.4063 C32.5,13.4063 37.2969,6.40625 37.2969,-0.09375 C37.2969,-6.59375 32.5,-13.5938 18.7031,-13.5938 M19.5,10.2031 C16.7031,10.2031 14.7969,9.40625 13.5,6.90625 C12.2031,4.40625 10.4063,-2.09375 10.2969,-4.70313 C10.0938,-7.40625 11.0938,-9 13.5,-9.79688 C14.7031,-10.2031 16.2969,-10.4063 17.9063,-10.4063 C20.5938,-10.4063 22.4063,-9.79688 23.7969,-7.09375 C25.2031,-4.5 27.1094,2 27.1094,4.5 C27.1094,9.40625 23.5,10.2031 19.5,10.2031"/>
<path class="Note" transform="matrix(0.992001,0,0,0.992001,1942.83,851.33)" d="M18.7031,-13.5938 C4.90625,-13.5938 0,-6.59375 0,-0.09375 C0,6.40625 4.90625,13.4063 18.7031,13.4063 C32.5,13.4063 37.2969,6.40625 37.2969,-0.09375 C37.2969,-6.59375 32.5,-13.5938 18.7031,-13.5938 M19.5,10.2031 C16.7031,10.2031 14.7969,9.40625 13.5,6.90625 C12.2031,4.40625 10.4063,-2.09375 10.2969,-4.70313 C10.0938,-7.40625 11.0938,-9 13.5,-9.79688 C14.7031,-10.2031 16.2969,-10.4063 17.9063,-10.4063 C20.5938,-10.4063 22.4063,-9.79688 23.7969,-7.09375 C25.2031,-4.5 27.1094,2 27.1094,4.5 C27.1094,9.40625 23.5,10.2031 19.5,10.2031"/>
<path class="Note" transform="matrix(0.992001,0,0,0.992001,1875.95,1843.82)" d="M18.7031,-13.5938 C4.90625,-13.5938 0,-6.59375 0,-0.09375 C0,6.40625 4.90625,13.4063 18.7031,13.4063 C32.5,13.4063 37.2969,6.40625 37.2969,-0.09375 C37.2969,-6.59375 32.5,-13.5938 18.7031,-13.5938 M19.5,10.2031 C16.7031,10.2031 14.7969,9.40625 13.5,6.90625 C12.2031,4.40625 10.4063,-2.09375 10.2969,-4.70313 C10.0938,-7.40625 11.0938,-9 13.5,-9.79688 C14.7031,-10.2031 16.2969,-10.4063 17.9063,-10.4063 C20.5938,-10.4063 22.4063,-9.79688 23.7969,-7.09375 C25.2031,-4.5 27.1094,2 27.1094,4.5 C27.1094,9.40625 23.5,10.2031 19.5,10.2031"/>
<path class="Note" transform="matrix(0.992001,0,0,0.992001,1342.02,1831.42)" d="M18.7031,-13.5938 C4.90625,-13.5938 0,-6.59375 0,-0.09375 C0,6.40625 4.90625,13.4063 18.7031,13.4063 C32.5,13.4063 37.2969,6.40625 37.2969,-0.09375 C37.2969,-6.59375 32.5,-13.5938 18.7031,-13.5938 M19.5,10.2031 C16.7031,10.2031 14.7969,9.40625 13.5,6.90625 C12.2031,4.40625 10.4063,-2.09375 10.2969,-4.70313 C10.0938,-7.40625 11.0938,-9 13.5,-9.79688 C14.7031,-10.2031 16.2969,-10.4063 17.9063,-10.4063 C20.5938,-10.4063 22.4063,-9.79688 23.7969,-7.09375 C25.2031,-4.5 27.1094,2 27.1094,4.5 C27.1094,9.40625 23.5,10.2031 19.5,10.2031"/>
<path class="Note" transform="matrix(0.992001,0,0,0.992001,2411.24,838.93)" d="M18.7031,-13.5938 C4.90625,-13.5938 0,-6.59375 0,-0.09375 C0,6.40625 4.90625,13.4063 18.7031,13.4063 C32.5,13.4063 37.2969,6.40625 37.2969,-0.09375 C37.2969,-6.59375 32.5,-13.5938 18.7031,-13.5938 M19.5,10.2031 C16.7031,10.2031 14.7969,9.40625 13.5,6.90625 C12.2031,4.40625 10.4063,-2.09375 10.2969,-4.70313 C10.0938,-7.40625 11.0938,-9 13.5,-9.79688 C14.7031,-10.2031 16.2969,-10.4063 17.9063,-10.4063 C20.5938,-10.4063 22.4063,-9.79688 23.7969,-7.09375 C25.2031,-4.5 27.1094,2 27.1094,4.5 C27.1094,9.40625 23.5,10.2031 19.5,10.2031"/>
<path class="Note" transform="matrix(0.992001,0,0,0.992001,358.76,1806.62)" d="M18.7031,-13.5938 C4.90625,-13.5938 0,-6.59375 0,-0.09375 C0,6.40625 4.90625,13.4063 18.7031,13.4063 C32.5,13.4063 37.2969,6.40625 37.2969,-0.09375 C37.2969,-6.59375 32.5,-13.5938 18.7031,-13.5938 M19.5,10.2031 C16.7031,10.2031 14.7969,9.40625 13.5,6.90625 C12.2031,4.40625 10.4063,-2.09375 10.2969,-4.70313 C10.0938,-7.40625 11.0938,-9 13.5,-9.79688 C14.7031,-10.2031 16.2969,-10.4063 17.9063,-10.4063 C20.5938,-10.4063 22.4063,-9.79688 23.7969,-7.09375 C25.2031,-4.5 27.1094,2 27.1094,4.5 C27.1094,9.40625 23.5,10.2031 19.5,10.2031"/>
<path class="Note" transform="matrix(0.992001,0,0,0.992001,850.388,1819.02)" d="M18.7031,-13.5938 C4.90625,-13.5938 0,-6.59375 0,-0.09375 C0,6.40625 4.90625,13.4063 18.7031,13.4063 C32.5,13.4063 37.2969,6.40625 37.2969,-0.09375 C37.2969,-6.59375 32.5,-13.5938 18.7031,-13.5938 M19.5,10.2031 C16.7031,10.2031 14.7969,9.40625 13.5,6.90625 C12.2031,4.40625 10.4063,-2.09375 10.2969,-4.70313 C10.0938,-7.40625 11.0938,-9 13.5,-9.79688 C14.7031,-10.2031 16.2969,-10.4063 17.9063,-10.4063 C20.5938,-10.4063 22.4063,-9.79688 23.7969,-7.09375 C25.2031,-4.5 27.1094,2 27.1094,4.5 C27.1094,9.40625 23.5,10.2031 19.5,10.2031"/>
<path class="Note" transform="matrix(0.992001,0,0,0.992001,537.614,888.53)" d="M18.7031,-13.5938 C4.90625,-13.5938 0,-6.59375 0,-0.09375 C0,6.40625 4.90625,13.4063 18.7031,13.4063 C32.5,13.4063 37.2969,6.40625 37.2969,-0.09375 C37.2969,-6.59375 32.5,-13.5938 18.7031,-13.5938 M19.5,10.2031 C16.7031,10.2031 14.7969,9.40625 13.5,6.90625 C12.2031,4.40625 10.4063,-2.09375 10.2969,-4.70313 C10.0938,-7.40625 11.0938,-9 13.5,-9.79688 C14.7031,-10.2031 16.2969,-10.4063 17.9063,-10.4063 C20.5938,-10.4063 22.4063,-9.79688 23.7969,-7.09375 C25.2031,-4.5 27.1094,2 27.1094,4.5 C27.1094,9.40625 23.5,10.2031 19.5,10.2031"/>
<path class="Clef" transform="matrix(0.992001,0,0,0.992001,235.662,1533.82)" d="M12.2969,51.2969 C12.2969,57.9063 17.2969,66.6094 30.7969,66.6094 C35.5,66.6094 39.6094,65.4063 43.2031,63.2031 C48.6094,59.4063 50,52.7969 50,46.5 C50,42.6094 49.4063,38.1094 48.4063,32.4063 C48.1094,30.4063 47.5,27.4063 46.9063,23.5 C56.7031,20.2969 64,10.0938 64,-0.203125 C64,-15.2969 53.2969,-25.5 38.7031,-25.5 C37.7031,-31.5 36.7031,-37.4063 35.9063,-43 C46.4063,-54.1094 53.7031,-66.6094 53.7031,-82.5 C53.7031,-91.6094 50.9063,-99 49.2969,-102.609 C46.9063,-107.703 44,-111.203 42.2031,-111.203 C41.5,-111.203 38.4063,-110 35.1094,-106.109 C28.7031,-98.5 26.9063,-85.7031 26.9063,-77.3125 C26.9063,-71.9063 27.4063,-67 29.1094,-55.7969 C29,-55.7031 23.7969,-50.4063 21.7031,-48.7031 C12.5938,-40.2969 0,-28.1094 0,-8.09375 C0,10.5938 16.2969,25.2969 34.9063,25.2969 C37.7969,25.2969 40.5,25 42.7969,24.5938 C44.7031,34.2031 45.9063,41.2031 45.9063,46.5 C45.9063,56.9063 40.5,62.4063 30.4063,62.4063 C28,62.4063 25.9063,61.9063 25.7031,61.9063 C25.6094,61.7969 25.4063,61.7031 25.4063,61.6094 C25.4063,61.4063 25.6094,61.2969 25.9063,61.2969 C30.6094,60.5 35.2969,56.5 35.2969,50.1094 C35.2969,44.7031 31.2031,39 23.7031,39 C16.7031,39 12.2969,44.7031 12.2969,51.2969 M33.2031,-82.2031 C34.1094,-86.2031 38.7031,-96.7031 43.9063,-96.7031 C45.4063,-96.7031 47.7969,-91.9063 47.7969,-84.9063 C47.7969,-74.5 40.1094,-66.7031 33.2031,-59.9063 C32.6094,-63.9063 32.1094,-67.7969 32.1094,-72 C32.1094,-75.7031 32.4063,-79.1094 33.2031,-82.2031 M42,20.5938 C40,21 38.1094,21.2031 36.2031,21.2031 C21.9063,21.2031 9.70313,11.2031 9.70313,-3.90625 C9.70313,-16.0938 18.2969,-27 27.1094,-34.6094 C28.7969,-36.1094 30.4063,-37.5 31.9063,-39 C32.7969,-33.6094 33.5,-28.9063 34.2031,-24.7969 C25.0938,-22.0938 18.9063,-12.5 18.9063,-3.09375 C18.9063,3.90625 24.4063,13.5 32.4063,13.5 C33.2031,13.5 34.1094,13.0938 34.1094,12.2031 C34.1094,11.2969 33.1094,10.7969 31.9063,10 C28,7.59375 25.7969,5 25.7969,0.09375 C25.7969,-6 30.4063,-10.9063 36.2031,-12.2969 L42,20.5938 M56.2031,2.09375 C56.2031,9.20313 53.2969,16.5 46.2031,19.4063 C44.1094,7.40625 41.4063,-8.5 40.7031,-12.9063 C49.7031,-12.9063 56.2031,-6.79688 56.2031,2.09375"/>
<path class="Clef" transform="matrix(0.992001,0,0,0.992001,359.663,578.53)" d="M12.2969,51.2969 C12.2969,57.9063 17.2969,66.6094 30.7969,66.6094 C35.5,66.6094 39.6094,65.4063 43.2031,63.2031 C48.6094,59.4063 50,52.7969 50,46.5 C50,42.6094 49.4063,38.1094 48.4063,32.4063 C48.1094,30.4063 47.5,27.4063 46.9063,23.5 C56.7031,20.2969 64,10.0938 64,-0.203125 C64,-15.2969 53.2969,-25.5 38.7031,-25.5 C37.7031,-31.5 36.7031,-37.4063 35.9063,-43 C46.4063,-54.1094 53.7031,-66.6094 53.7031,-82.5 C53.7031,-91.6094 50.9063,-99 49.2969,-102.609 C46.9063,-107.703 44,-111.203 42.2031,-111.203 C41.5,-111.203 38.4063,-110 35.1094,-106.109 C28.7031,-98.5 26.9063,-85.7031 26.9063,-77.3125 C26.9063,-71.9063 27.4063,-67 29.1094,-55.7969 C29,-55.7031 23.7969,-50.4063 21.7031,-48.7031 C12.5938,-40.2969 0,-28.1094 0,-8.09375 C0,10.5938 16.2969,25.2969 34.9063,25.2969 C37.7969,25.2969 40.5,25 42.7969,24.5938 C44.7031,34.2031 45.9063,41.2031 45.9063,46.5 C45.9063,56.9063 40.5,62.4063 30.4063,62.4063 C28,62.4063 25.9063,61.9063 25.7031,61.9063 C25.6094,61.7969 25.4063,61.7031 25.4063,61.6094 C25.4063,61.4063 25.6094,61.2969 25.9063,61.2969 C30.6094,60.5 35.2969,56.5 35.2969,50.1094 C35.2969,44.7031 31.2031,39 23.7031,39 C16.7031,39 12.2969,44.7031 12.2969,51.2969 M33.2031,-82.2031 C34.1094,-86.2031 38.7031,-96.7031 43.9063,-96.7031 C45.4063,-96.7031 47.7969,-91.9063 47.7969,-84.9063 C47.7969,-74.5 40.1094,-66.7031 33.2031,-59.9063 C32.6094,-63.9063 32.1094,-67.7969 32.1094,-72 C32.1094,-75.7031 32.4063,-79.1094 33.2031,-82.2031 M42,20.5938 C40,21 38.1094,21.2031 36.2031,21.2031 C21.9063,21.2031 9.70313,11.2031 9.70313,-3.90625 C9.70313,-16.0938 18.2969,-27 27.1094,-34.6094 C28.7969,-36.1094 30.4063,-37.5 31.9063,-39 C32.7969,-33.6094 33.5,-28.9063 34.2031,-24.7969 C25.0938,-22.0938 18.9063,-12.5 18.9063,-3.09375 C18.9063,3.90625 24.4063,13.5 32.4063,13.5 C33.2031,13.5 34.1094,13.0938 34.1094,12.2031 C34.1094,11.2969 33.1094,10.7969 31.9063,10 C28,7.59375 25.7969,5 25.7969,0.09375 C25.7969,-6 30.4063,-10.9063 36.2031,-12.2969 L42,20.5938 M56.2031,2.09375 C56.2031,9.20313 53.2969,16.5 46.2031,19.4063 C44.1094,7.40625 41.4063,-8.5 40.7031,-12.9063 C49.7031,-12.9063 56.2031,-6.79688 56.2031,2.09375"/>
<path class="Clef" transform="matrix(0.992001,0,0,0.992001,235.662,1794.22)" d="M12.2969,51.2969 C12.2969,57.9063 17.2969,66.6094 30.7969,66.6094 C35.5,66.6094 39.6094,65.4063 43.2031,63.2031 C48.6094,59.4063 50,52.7969 50,46.5 C50,42.6094 49.4063,38.1094 48.4063,32.4063 C48.1094,30.4063 47.5,27.4063 46.9063,23.5 C56.7031,20.2969 64,10.0938 64,-0.203125 C64,-15.2969 53.2969,-25.5 38.7031,-25.5 C37.7031,-31.5 36.7031,-37.4063 35.9063,-43 C46.4063,-54.1094 53.7031,-66.6094 53.7031,-82.5 C53.7031,-91.6094 50.9063,-99 49.2969,-102.609 C46.9063,-107.703 44,-111.203 42.2031,-111.203 C41.5,-111.203 38.4063,-110 35.1094,-106.109 C28.7031,-98.5 26.9063,-85.7031 26.9063,-77.3125 C26.9063,-71.9063 27.4063,-67 29.1094,-55.7969 C29,-55.7031 23.7969,-50.4063 21.7031,-48.7031 C12.5938,-40.2969 0,-28.1094 0,-8.09375 C0,10.5938 16.2969,25.2969 34.9063,25.2969 C37.7969,25.2969 40.5,25 42.7969,24.5938 C44.7031,34.2031 45.9063,41.2031 45.9063,46.5 C45.9063,56.9063 40.5,62.4063 30.4063,62.4063 C28,62.4063 25.9063,61.9063 25.7031,61.9063 C25.6094,61.7969 25.4063,61.7031 25.4063,61.6094 C25.4063,61.4063 25.6094,61.2969 25.9063,61.2969 C30.6094,60.5 35.2969,56.5 35.2969,50.1094 C35.2969,44.7031 31.2031,39 23.7031,39 C16.7031,39 12.2969,44.7031 12.2969,51.2969 M33.2031,-82.2031 C34.1094,-86.2031 38.7031,-96.7031 43.9063,-96.7031 C45.4063,-96.7031 47.7969,-91.9063 47.7969,-84.9063 C47.7969,-74.5 40.1094,-66.7031 33.2031,-59.9063 C32.6094,-63.9063 32.1094,-67.7969 32.1094,-72 C32.1094,-75.7031 32.4063,-79.1094 33.2031,-82.2031 M42,20.5938 C40,21 38.1094,21.2031 36.2031,21.2031 C21.9063,21.2031 9.70313,11.2031 9.70313,-3.90625 C9.70313,-16.0938 18.2969,-27 27.1094,-34.6094 C28.7969,-36.1094 30.4063,-37.5 31.9063,-39 C32.7969,-33.6094 33.5,-28.9063 34.2031,-24.7969 C25.0938,-22.0938 18.9063,-12.5 18.9063,-3.09375 C18.9063,3.90625 24.4063,13.5 32.4063,13.5 C33.2031,13.5 34.1094,13.0938 34.1094,12.2031 C34.1094,11.2969 33.1094,10.7969 31.9063,10 C28,7.59375 25.7969,5 25.7969,0.09375 C25.7969,-6 30.4063,-10.9063 36.2031,-12.2969 L42,20.5938 M56.2031,2.09375 C56.2031,9.20313 53.2969,16.5 46.2031,19.4063 C44.1094,7.40625 41.4063,-8.5 40.7031,-12.9063 C49.7031,-12.9063 56.2031,-6.79688 56.2031,2.09375"/>
<path class="Clef" transform="matrix(0.992001,0,0,0.992001,359.663,838.93)" d="M12.2969,51.2969 C12.2969,57.9063 17.2969,66.6094 30.7969,66.6094 C35.5,66.6094 39.6094,65.4063 43.2031,63.2031 C48.6094,59.4063 50,52.7969 50,46.5 C50,42.6094 49.4063,38.1094 48.4063,32.4063 C48.1094,30.4063 47.5,27.4063 46.9063,23.5 C56.7031,20.2969 64,10.0938 64,-0.203125 C64,-15.2969 53.2969,-25.5 38.7031,-25.5 C37.7031,-31.5 36.7031,-37.4063 35.9063,-43 C46.4063,-54.1094 53.7031,-66.6094 53.7031,-82.5 C53.7031,-91.6094 50.9063,-99 49.2969,-102.609 C46.9063,-107.703 44,-111.203 42.2031,-111.203 C41.5,-111.203 38.4063,-110 35.1094,-106.109 C28.7031,-98.5 26.9063,-85.7031 26.9063,-77.3125 C26.9063,-71.9063 27.4063,-67 29.1094,-55.7969 C29,-55.7031 23.7969,-50.4063 21.7031,-48.7031 C12.5938,-40.2969 0,-28.1094 0,-8.09375 C0,10.5938 16.2969,25.2969 34.9063,25.2969 C37.7969,25.2969 40.5,25 42.7969,24.5938 C44.7031,34.2031 45.9063,41.2031 45.9063,46.5 C45.9063,56.9063 40.5,62.4063 30.4063,62.4063 C28,62.4063 25.9063,61.9063 25.7031,61.9063 C25.6094,61.7969 25.4063,61.7031 25.4063,61.6094 C25.4063,61.4063 25.6094,61.2969 25.9063,61.2969 C30.6094,60.5 35.2969,56.5 35.2969,50.1094 C35.2969,44.7031 31.2031,39 23.7031,39 C16.7031,39 12.2969,44.7031 12.2969,51.2969 M33.2031,-82.2031 C34.1094,-86.2031 38.7031,-96.7031 43.9063,-96.7031 C45.4063,-96.7031 47.7969,-91.9063 47.7969,-84.9063 C47.7969,-74.5 40.1094,-66.7031 33.2031,-59.9063 C32.6094,-63.9063 32.1094,-67.7969 32.1094,-72 C32.1094,-75.7031 32.4063,-79.1094 33.2031,-82.2031 M42,20.5938 C40,21 38.1094,21.2031 36.2031,21.2031 C21.9063,21.2031 9.70313,11.2031 9.70313,-3.90625 C9.70313,-16.0938 18.2969,-27 27.1094,-34.6094 C28.7969,-36.1094 30.4063,-37.5 31.9063,-39 C32.7969,-33.6094 33.5,-28.9063 34.2031,-24.7969 C25.0938,-22.0938 18.9063,-12.5 18.9063,-3.09375 C18.9063,3.90625 24.4063,13.5 32.4063,13.5 C33.2031,13.5 34.1094,13.0938 34.1094,12.2031 C34.1094,11.2969 33.1094,10.7969 31.9063,10 C28,7.59375 25.7969,5 25.7969,0.09375 C25.7969,-6 30.4063,-10.9063 36.2031,-12.2969 L42,20.5938 M56.2031,2.09375 C56.2031,9.20313 53.2969,16.5 46.2031,19.4063 C44.1094,7.40625 41.4063,-8.5 40.7031,-12.9063 C49.7031,-12.9063 56.2031,-6.79688 56.2031,2.09375"/>
<path class="TimeSig" transform="matrix(0.992001,0,0,0.992001,446.556,528.93)" d="M20.7969,12.7031 L20.7969,20.0938 L12.5,20.0938 C11.7969,20.0938 11.0938,20.7031 11.0938,21.5 L11.0938,23.4063 C11.0938,24.2031 11.7969,24.7969 12.5,24.7969 L42.7969,24.7969 C43.6094,24.7969 44.2031,24.2031 44.2031,23.4063 L44.2031,21.5 C44.2031,20.7031 43.6094,20.0938 42.7969,20.0938 L33.9063,20.0938 L33.9063,12.7031 L42.7969,12.7031 C43.6094,12.7031 44.2031,12 44.2031,11.2031 L44.2031,9.29688 C44.2031,8.59375 43.6094,7.90625 42.7969,7.90625 L33.9063,7.90625 L33.9063,-8 C33.9063,-8.59375 33.6094,-9.09375 33.1094,-9.29688 L31.9063,-9.90625 C31.7031,-10 31.4063,-10.0938 31.2031,-10.0938 C30.9063,-10 30.5,-9.90625 30.2969,-9.70313 L21.2031,-1.40625 C20.9063,-1.09375 20.7969,-0.703125 20.7969,-0.296875 L20.7969,7.90625 L9.29688,7.90625 C9.29688,7.90625 20.4063,-4.09375 32.2031,-19.9063 C32.6094,-20.4063 32.7031,-20.9063 32.7031,-21.2969 C32.7031,-21.7969 32.5,-22.2031 32.4063,-22.2969 L30.2031,-24.5 C30,-24.7031 29.6094,-24.9063 29.2031,-24.9063 C28.6094,-24.9063 15.0938,-24.9063 14.4063,-24.9063 C13.5938,-24.9063 13.0938,-24.2969 13,-23.7031 C13,-23.7031 12.5,-16.2969 9.90625,-8.20313 C7.29688,-0.09375 4.29688,4.90625 1.70313,8.59375 C1.70313,8.59375 1.40625,9.09375 1.40625,9.70313 C1.40625,9.90625 1.40625,10.0938 1.5,10.2969 C1.90625,11 2.5,12.0938 2.5,12.0938 C2.5,12.0938 2.70313,12.7031 3.59375,12.7031 L20.7969,12.7031 "/>
<path class="TimeSig" transform="matrix(0.992001,0,0,0.992001,446.556,578.53)" d="M20.7969,12.7031 L20.7969,20.0938 L12.5,20.0938 C11.7969,20.0938 11.0938,20.7031 11.0938,21.5 L11.0938,23.4063 C11.0938,24.2031 11.7969,24.7969 12.5,24.7969 L42.7969,24.7969 C43.6094,24.7969 44.2031,24.2031 44.2031,23.4063 L44.2031,21.5 C44.2031,20.7031 43.6094,20.0938 42.7969,20.0938 L33.9063,20.0938 L33.9063,12.7031 L42.7969,12.7031 C43.6094,12.7031 44.2031,12 44.2031,11.2031 L44.2031,9.29688 C44.2031,8.59375 43.6094,7.90625 42.7969,7.90625 L33.9063,7.90625 L33.9063,-8 C33.9063,-8.59375 33.6094,-9.09375 33.1094,-9.29688 L31.9063,-9.90625 C31.7031,-10 31.4063,-10.0938 31.2031,-10.0938 C30.9063,-10 30.5,-9.90625 30.2969,-9.70313 L21.2031,-1.40625 C20.9063,-1.09375 20.7969,-0.703125 20.7969,-0.296875 L20.7969,7.90625 L9.29688,7.90625 C9.29688,7.90625 20.4063,-4.09375 32.2031,-19.9063 C32.6094,-20.4063 32.7031,-20.9063 32.7031,-21.2969 C32.7031,-21.7969 32.5,-22.2031 32.4063,-22.2969 L30.2031,-24.5 C30,-24.7031 29.6094,-24.9063 29.2031,-24.9063 C28.6094,-24.9063 15.0938,-24.9063 14.4063,-24.9063 C13.5938,-24.9063 13.0938,-24.2969 13,-23.7031 C13,-23.7031 12.5,-16.2969 9.90625,-8.20313 C7.29688,-0.09375 4.29688,4.90625 1.70313,8.59375 C1.70313,8.59375 1.40625,9.09375 1.40625,9.70313 C1.40625,9.90625 1.40625,10.0938 1.5,10.2969 C1.90625,11 2.5,12.0938 2.5,12.0938 C2.5,12.0938 2.70313,12.7031 3.59375,12.7031 L20.7969,12.7031 "/>
<path class="TimeSig" transform="matrix(0.992001,0,0,0.992001,446.556,789.33)" d="M20.7969,12.7031 L20.7969,20.0938 L12.5,20.0938 C11.7969,20.0938 11.0938,20.7031 11.0938,21.5 L11.0938,23.4063 C11.0938,24.2031 11.7969,24.7969 12.5,24.7969 L42.7969,24.7969 C43.6094,24.7969 44.2031,24.2031 44.2031,23.4063 L44.2031,21.5 C44.2031,20.7031 43.6094,20.0938 42.7969,20.0938 L33.9063,20.0938 L33.9063,12.7031 L42.7969,12.7031 C43.6094,12.7031 44.2031,12 44.2031,11.2031 L44.2031,9.29688 C44.2031,8.59375 43.6094,7.90625 42.7969,7.90625 L33.9063,7.90625 L33.9063,-8 C33.9063,-8.59375 33.6094,-9.09375 33.1094,-9.29688 L31.9063,-9.90625 C31.7031,-10 31.4063,-10.0938 31.2031,-10.0938 C30.9063,-10 30.5,-9.90625 30.2969,-9.70313 L21.2031,-1.40625 C20.9063,-1.09375 20.7969,-0.703125 20.7969,-0.296875 L20.7969,7.90625 L9.29688,7.90625 C9.29688,7.90625 20.4063,-4.09375 32.2031,-19.9063 C32.6094,-20.4063 32.7031,-20.9063 32.7031,-21.2969 C32.7031,-21.7969 32.5,-22.2031 32.4063,-22.2969 L30.2031,-24.5 C30,-24.7031 29.6094,-24.9063 29.2031,-24.9063 C28.6094,-24.9063 15.0938,-24.9063 14.4063,-24.9063 C13.5938,-24.9063 13.0938,-24.2969 13,-23.7031 C13,-23.7031 12.5,-16.2969 9.90625,-8.20313 C7.29688,-0.09375 4.29688,4.90625 1.70313,8.59375 C1.70313,8.59375 1.40625,9.09375 1.40625,9.70313 C1.40625,9.90625 1.40625,10.0938 1.5,10.2969 C1.90625,11 2.5,12.0938 2.5,12.0938 C2.5,12.0938 2.70313,12.7031 3.59375,12.7031 L20.7969,12.7031 "/>
<path class="TimeSig" transform="matrix(0.992001,0,0,0.992001,446.556,838.93)" d="M20.7969,12.7031 L20.7969,20.0938 L12.5,20.0938 C11.7969,20.0938 11.0938,20.7031 11.0938,21.5 L11.0938,23.4063 C11.0938,24.2031 11.7969,24.7969 12.5,24.7969 L42.7969,24.7969 C43.6094,24.7969 44.2031,24.2031 44.2031,23.4063 L44.2031,21.5 C44.2031,20.7031 43.6094,20.0938 42.7969,20.0938 L33.9063,20.0938 L33.9063,12.7031 L42.7969,12.7031 C43.6094,12.7031 44.2031,12 44.2031,11.2031 L44.2031,9.29688 C44.2031,8.59375 43.6094,7.90625 42.7969,7.90625 L33.9063,7.90625 L33.9063,-8 C33.9063,-8.59375 33.6094,-9.09375 33.1094,-9.29688 L31.9063,-9.90625 C31.7031,-10 31.4063,-10.0938 31.2031,-10.0938 C30.9063,-10 30.5,-9.90625 30.2969,-9.70313 L21.2031,-1.40625 C20.9063,-1.09375 20.7969,-0.703125 20.7969,-0.296875 L20.7969,7.90625 L9.29688,7.90625 C9.29688,7.90625 20.4063,-4.09375 32.2031,-19.9063 C32.6094,-20.4063 32.7031,-20.9063 32.7031,-21.2969 C32.7031,-21.7969 32.5,-22.2031 32.4063,-22.2969 L30.2031,-24.5 C30,-24.7031 29.6094,-24.9063 29.2031,-24.9063 C28.6094,-24.9063 15.0938,-24.9063 14.4063,-24.9063 C13.5938,-24.9063 13.0938,-24.2969 13,-23.7031 C13,-23.7031 12.5,-16.2969 9.90625,-8.20313 C7.29688,-0.09375 4.29688,4.90625 1.70313,8.59375 C1.70313,8.59375 1.40625,9.09375 1.40625,9.70313 C1.40625,9.90625 1.40625,10.0938 1.5,10.2969 C1.90625,11 2.5,12.0938 2.5,12.0938 C2.5,12.0938 2.70313,12.7031 3.59375,12.7031 L20.7969,12.7031 "/>
<path class="Rest" transform="matrix(0.992001,0,0,0.992001,2561.62,1484.22)" d="M1.40625,-0.5 C0.59375,-0.5 0,0.09375 0,0.90625 L0,11.7031 C0,12.5 0.59375,13.0938 1.40625,13.0938 L31.1094,13.0938 C31.9063,13.0938 32.5,12.5 32.5,11.7031 L32.5,0.90625 C32.5,0.09375 31.9063,-0.5 31.1094,-0.5 L1.40625,-0.5 "/>
<path class="Rest" transform="matrix(0.992001,0,0,0.992001,2561.62,1744.62)" d="M1.40625,-0.5 C0.59375,-0.5 0,0.09375 0,0.90625 L0,11.7031 C0,12.5 0.59375,13.0938 1.40625,13.0938 L31.1094,13.0938 C31.9063,13.0938 32.5,12.5 32.5,11.7031 L32.5,0.90625 C32.5,0.09375 31.9063,-0.5 31.1094,-0.5 L1.40625,-0.5 "/>
<path class="Fingering" d="M1964.55,449.988 L1950.96,468.91 L1950.96,471.144 L1962.19,471.144 L1962.19,473.222 C1962.19,475.269 1962.19,475.347 1961.96,475.707 C1961.63,476.144 1960.86,476.269 1958.6,476.269 L1958.14,476.269 L1958.14,478.144 L1969.83,478.144 L1969.83,476.269 L1969.67,476.269 C1967.39,476.269 1966.63,476.144 1966.31,475.707 C1966.06,475.347 1966.06,475.3 1966.06,473.222 L1966.06,471.144 L1970.91,471.144 L1970.91,468.91 L1966.06,468.91 L1966.06,457.988 C1966.06,452.988 1966.06,452.863 1966.27,449.988 L1964.55,449.988 M1962.19,468.91 L1953.39,468.91 L1962.19,456.785 L1962.19,468.91 "/>
<path class="Fingering" d="M1496.27,474.825 C1499.91,473.513 1501.58,471.466 1501.58,468.263 C1501.58,464.075 1498.38,461.388 1493.42,461.388 C1488.74,461.388 1485.19,464.154 1485.19,467.794 C1485.19,469.435 1486.27,470.591 1487.83,470.591 C1489.22,470.591 1490.19,469.622 1490.19,468.185 C1490.19,467.31 1489.86,466.794 1488.94,466.154 C1488.55,465.872 1488.42,465.7 1488.42,465.435 C1488.42,464.31 1490.74,463.107 1493.02,463.107 C1495.91,463.107 1497.42,464.904 1497.42,468.31 C1497.42,472.029 1495.91,473.982 1493.07,473.982 C1492.71,473.982 1492.02,473.95 1491.42,473.904 C1491.1,473.872 1490.78,473.872 1490.55,473.872 C1489.71,473.872 1489.27,474.232 1489.27,474.95 C1489.27,475.622 1489.66,475.95 1490.55,475.95 C1490.78,475.95 1491.1,475.95 1491.46,475.904 C1492.27,475.872 1492.91,475.872 1493.35,475.872 C1496.3,475.872 1497.91,477.982 1497.91,481.95 C1497.91,486.107 1495.91,488.419 1492.3,488.419 C1489.78,488.419 1487.07,487.06 1487.07,485.825 C1487.07,485.466 1487.14,485.388 1487.91,484.95 C1489.02,484.263 1489.46,483.591 1489.46,482.591 C1489.46,481.138 1488.38,480.06 1486.94,480.06 C1485.22,480.06 1484.11,481.466 1484.11,483.591 C1484.11,487.466 1487.66,490.138 1492.78,490.138 C1498.58,490.138 1502.35,486.95 1502.35,482.029 C1502.35,478.263 1500.42,475.982 1496.27,474.825"/>
<path class="Fingering" d="M1033.72,483.089 L1031.96,483.089 L1031.55,485.136 C1031.03,487.73 1030.72,487.964 1028.24,487.964 L1019.28,487.964 C1022.03,485.089 1022.96,484.246 1025.52,482.246 C1029.16,479.449 1030.72,478.058 1031.63,476.855 C1032.91,475.089 1033.55,473.339 1033.55,471.371 C1033.55,466.808 1029.8,463.574 1024.55,463.574 C1019.47,463.574 1015.6,466.808 1015.6,471.089 C1015.6,473.621 1016.88,475.339 1018.75,475.339 C1020.24,475.339 1021.24,474.339 1021.24,472.886 C1021.24,471.886 1020.68,470.98 1019.83,470.621 C1018.36,470.011 1018.28,469.933 1018.28,469.417 C1018.28,468.808 1018.68,467.886 1019.24,467.214 C1020.24,465.98 1021.88,465.292 1023.75,465.292 C1027.08,465.292 1029.03,467.339 1029.03,470.699 C1029.03,473.652 1027.64,476.339 1024.32,479.855 C1021.36,482.964 1019.52,484.933 1018.83,485.699 C1017.39,487.371 1016.68,488.292 1014.93,490.605 L1014.93,491.73 L1032.96,491.73 L1033.72,483.089 "/>
<path class="Fingering" d="M2425.3,441.103 C2427.45,441.635 2428.53,441.791 2430.13,441.791 C2433.53,441.791 2436.02,440.635 2437.33,438.385 C2437.77,437.666 2437.94,437.275 2437.94,436.947 C2437.94,436.713 2437.85,436.588 2437.61,436.588 C2437.49,436.588 2437.33,436.635 2437.1,436.744 C2435.13,437.588 2434.1,437.791 2431.77,437.791 C2429.22,437.791 2427.61,437.541 2423.53,436.588 C2423.38,439.947 2423.02,444.228 2422.45,449.182 C2421.61,450.072 2421.33,450.588 2421.33,451.228 C2421.33,452.072 2421.86,452.588 2422.61,452.588 C2423.66,452.588 2424.25,451.744 2424.41,450.15 C2425.81,449.15 2427.14,448.713 2428.74,448.713 C2432.33,448.713 2434.45,451.432 2434.45,456.025 C2434.45,460.182 2433.13,463.619 2428.5,463.619 C2426.1,463.619 2423.61,462.385 2423.61,461.15 C2423.61,460.869 2423.86,460.541 2424.33,460.26 C2425.58,459.51 2425.94,458.978 2425.94,457.9 C2425.94,456.51 2424.86,455.432 2423.41,455.432 C2421.81,455.432 2420.53,456.9 2420.53,458.791 C2420.53,460.791 2421.69,462.791 2423.5,464.025 C2424.86,464.9 2426.45,465.338 2428.58,465.338 C2434.86,465.338 2438.81,461.666 2438.81,455.791 C2438.81,450.353 2435.22,446.713 2429.77,446.713 C2428.05,446.713 2426.81,446.994 2424.61,447.9 L2425.3,441.103 "/>
<path class="Fingering" d="M557.489,463.574 C556.129,465.214 552.457,466.449 548.77,466.527 L548.77,468.261 L552.286,468.261 C554.614,468.292 554.848,468.527 554.77,470.777 L554.77,486.808 C554.77,488.855 554.77,488.933 554.536,489.292 C554.207,489.683 553.457,489.855 551.207,489.855 L548.614,489.855 L548.614,491.73 L564.457,491.73 L564.457,489.855 L562.254,489.855 C560.004,489.855 559.254,489.683 558.926,489.292 C558.645,488.933 558.645,488.886 558.645,486.808 L558.645,470.292 C558.645,468.058 558.739,466.167 558.926,463.574 L557.489,463.574 "/>
<path class="Fingering" d="M1496.27,903.804 C1499.91,902.491 1501.58,900.444 1501.58,897.241 C1501.58,893.054 1498.38,890.366 1493.42,890.366 C1488.74,890.366 1485.19,893.132 1485.19,896.772 C1485.19,898.413 1486.27,899.569 1487.83,899.569 C1489.22,899.569 1490.19,898.601 1490.19,897.163 C1490.19,896.288 1489.86,895.772 1488.94,895.132 C1488.55,894.851 1488.42,894.679 1488.42,894.413 C1488.42,893.288 1490.74,892.085 1493.02,892.085 C1495.91,892.085 1497.42,893.882 1497.42,897.288 C1497.42,901.007 1495.91,902.96 1493.07,902.96 C1492.71,902.96 1492.02,902.929 1491.42,902.882 C1491.1,902.851 1490.78,902.851 1490.55,902.851 C1489.71,902.851 1489.27,903.21 1489.27,903.929 C1489.27,904.601 1489.66,904.929 1490.55,904.929 C1490.78,904.929 1491.1,904.929 1491.46,904.882 C1492.27,904.851 1492.91,904.851 1493.35,904.851 C1496.3,904.851 1497.91,906.96 1497.91,910.929 C1497.91,915.085 1495.91,917.397 1492.3,917.397 C1489.78,917.397 1487.07,916.038 1487.07,914.804 C1487.07,914.444 1487.14,914.366 1487.91,913.929 C1489.02,913.241 1489.46,912.569 1489.46,911.569 C1489.46,910.116 1488.38,909.038 1486.94,909.038 C1485.22,909.038 1484.11,910.444 1484.11,912.569 C1484.11,916.444 1487.66,919.116 1492.78,919.116 C1498.58,919.116 1502.35,915.929 1502.35,911.007 C1502.35,907.241 1500.42,904.96 1496.27,903.804"/>
<path class="Fingering" d="M1027.74,902.766 L1014.14,921.688 L1014.14,923.922 L1025.38,923.922 L1025.38,926.001 C1025.38,928.047 1025.38,928.126 1025.14,928.485 C1024.82,928.922 1024.05,929.047 1021.78,929.047 L1021.33,929.047 L1021.33,930.922 L1033.02,930.922 L1033.02,929.047 L1032.86,929.047 C1030.58,929.047 1029.82,928.922 1029.5,928.485 C1029.25,928.126 1029.25,928.079 1029.25,926.001 L1029.25,923.922 L1034.1,923.922 L1034.1,921.688 L1029.25,921.688 L1029.25,910.766 C1029.25,905.766 1029.25,905.641 1029.46,902.766 L1027.74,902.766 M1025.38,921.688 L1016.58,921.688 L1025.38,909.563 L1025.38,921.688 "/>
<path class="Fingering" d="M551.676,919.682 C553.832,920.213 554.911,920.369 556.504,920.369 C559.911,920.369 562.395,919.213 563.707,916.963 C564.145,916.244 564.317,915.854 564.317,915.526 C564.317,915.291 564.223,915.166 563.989,915.166 C563.864,915.166 563.707,915.213 563.473,915.322 C561.504,916.166 560.473,916.369 558.145,916.369 C555.598,916.369 553.989,916.119 549.911,915.166 C549.754,918.526 549.395,922.807 548.832,927.76 C547.989,928.651 547.707,929.166 547.707,929.807 C547.707,930.651 548.239,931.166 548.989,931.166 C550.036,931.166 550.629,930.322 550.786,928.729 C552.192,927.729 553.52,927.291 555.114,927.291 C558.707,927.291 560.832,930.01 560.832,934.604 C560.832,938.76 559.504,942.197 554.879,942.197 C552.473,942.197 549.989,940.963 549.989,939.729 C549.989,939.447 550.239,939.119 550.707,938.838 C551.957,938.088 552.317,937.557 552.317,936.479 C552.317,935.088 551.239,934.01 549.786,934.01 C548.192,934.01 546.911,935.479 546.911,937.369 C546.911,939.369 548.067,941.369 549.879,942.604 C551.239,943.479 552.832,943.916 554.957,943.916 C561.239,943.916 565.192,940.244 565.192,934.369 C565.192,928.932 561.598,925.291 556.145,925.291 C554.426,925.291 553.192,925.572 550.989,926.479 L551.676,919.682 "/>
<path class="Fingering" d="M2431.11,876.974 C2429.75,878.615 2426.08,879.849 2422.39,879.927 L2422.39,881.662 L2425.91,881.662 C2428.24,881.693 2428.47,881.927 2428.39,884.177 L2428.39,900.209 C2428.39,902.255 2428.39,902.334 2428.16,902.693 C2427.83,903.084 2427.08,903.255 2424.83,903.255 L2422.24,903.255 L2422.24,905.13 L2438.08,905.13 L2438.08,903.255 L2435.88,903.255 C2433.63,903.255 2432.88,903.084 2432.55,902.693 C2432.27,902.334 2432.27,902.287 2432.27,900.209 L2432.27,883.693 C2432.27,881.459 2432.36,879.568 2432.55,876.974 L2431.11,876.974 "/>
<path class="Fingering" d="M1970.53,896.482 L1968.77,896.482 L1968.36,898.529 C1967.85,901.122 1967.53,901.357 1965.05,901.357 L1956.1,901.357 C1958.85,898.482 1959.77,897.638 1962.33,895.638 C1965.97,892.841 1967.53,891.451 1968.44,890.247 C1969.72,888.482 1970.36,886.732 1970.36,884.763 C1970.36,880.201 1966.61,876.966 1961.36,876.966 C1956.28,876.966 1952.41,880.201 1952.41,884.482 C1952.41,887.013 1953.69,888.732 1955.56,888.732 C1957.05,888.732 1958.05,887.732 1958.05,886.279 C1958.05,885.279 1957.49,884.372 1956.64,884.013 C1955.17,883.404 1955.1,883.326 1955.1,882.81 C1955.1,882.201 1955.49,881.279 1956.05,880.607 C1957.05,879.372 1958.69,878.685 1960.56,878.685 C1963.89,878.685 1965.85,880.732 1965.85,884.091 C1965.85,887.044 1964.46,889.732 1961.13,893.247 C1958.17,896.357 1956.33,898.326 1955.64,899.091 C1954.21,900.763 1953.49,901.685 1951.74,903.997 L1951.74,905.122 L1969.77,905.122 L1970.53,896.482 "/>
<path class="Bracket" transform="matrix(3.596,0,0,3.596,305.275,863.73)" d="M0.90625,-50 C2.70313,-51.9063 6.20313,-55.7969 6.20313,-63 C6.20313,-72.1094 2.29688,-81.3125 2.29688,-87 C2.29688,-93.1094 5.79688,-98.8125 6,-99 C6,-99.1094 6,-99.1094 6,-99.2031 C6,-99.3125 6,-99.4063 5.90625,-99.5 C5.79688,-99.5 5.59375,-99.5 5.5,-99.3125 C5.40625,-99.2031 0,-93.8125 0,-85.6094 C0,-76.8125 3.5,-70.6094 3.5,-59.1094 C3.5,-56.9063 2.59375,-53.4063 0.09375,-50.2969 C0,-50.2969 0,-50.1094 -0.09375,-50 C-0.09375,-49.9063 0,-49.7969 0.09375,-49.7031 C2.59375,-46.6094 3.5,-43.1094 3.5,-40.9063 C3.5,-29.4063 0,-23.2031 0,-14.4063 C0,-6.29688 5.40625,-0.796875 5.5,-0.703125 C5.59375,-0.5 5.79688,-0.40625 5.90625,-0.5 C6,-0.59375 6.09375,-0.703125 6,-0.796875 C6,-0.796875 6,-0.90625 6,-1 C5.79688,-1.20313 2.29688,-6.90625 2.29688,-13 C2.29688,-18.7031 6.20313,-27.9063 6.20313,-37 C6.20313,-44.2969 2.70313,-48.1094 0.90625,-50"/>
<path class="Bracket" transform="matrix(3.596,0,0,3.596,181.275,1819.02)" d="M0.90625,-50 C2.70313,-51.9063 6.20313,-55.7969 6.20313,-63 C6.20313,-72.1094 2.29688,-81.3125 2.29688,-87 C2.29688,-93.1094 5.79688,-98.8125 6,-99 C6,-99.1094 6,-99.1094 6,-99.2031 C6,-99.3125 6,-99.4063 5.90625,-99.5 C5.79688,-99.5 5.59375,-99.5 5.5,-99.3125 C5.40625,-99.2031 0,-93.8125 0,-85.6094 C0,-76.8125 3.5,-70.6094 3.5,-59.1094 C3.5,-56.9063 2.59375,-53.4063 0.09375,-50.2969 C0,-50.2969 0,-50.1094 -0.09375,-50 C-0.09375,-49.9063 0,-49.7969 0.09375,-49.7031 C2.59375,-46.6094 3.5,-43.1094 3.5,-40.9063 C3.5,-29.4063 0,-23.2031 0,-14.4063 C0,-6.29688 5.40625,-0.796875 5.5,-0.703125 C5.59375,-0.5 5.79688,-0.40625 5.90625,-0.5 C6,-0.59375 6.09375,-0.703125 6,-0.796875 C6,-0.796875 6,-0.90625 6,-1 C5.79688,-1.20313 2.29688,-6.90625 2.29688,-13 C2.29688,-18.7031 6.20313,-27.9063 6.20313,-37 C6.20313,-44.2969 2.70313,-48.1094 0.90625,-50"/>
</svg>
