<svg version="1.1" id="Layer_1" xmlns="http://www.w3.org/2000/svg" xmlns:xlink="http://www.w3.org/1999/xlink" x="0px" y="0px"
	 width="100%" viewBox="0 0 77 72" enable-background="new 0 0 77 72" xml:space="preserve">
<path fill="#F9FAFA" opacity="1.000000" stroke="none" 
	d="
M53.000038,73.000000 
	C36.333359,73.000000 20.166180,72.936264 4.000574,73.066856 
	C1.497995,73.087067 0.921286,72.501099 0.934200,69.999695 
	C1.047771,48.000290 1.047755,25.999804 0.934218,4.000394 
	C0.921309,1.499222 1.499041,0.922795 4.000248,0.934434 
	C27.666395,1.044566 51.333469,1.044543 74.999619,0.934460 
	C77.500496,0.922827 78.078712,1.498757 78.065796,4.000260 
	C77.952209,25.999668 77.952248,48.000156 78.065765,69.999565 
	C78.078674,72.500626 77.509018,73.137245 74.998222,73.068695 
	C67.836884,72.873184 60.666737,73.000000 53.000038,73.000000 
z"/>
<path fill="#0C0C0C" opacity="1.000000" stroke="none" 
	d="
M38.131355,7.689828 
	C42.595837,12.647601 42.482624,16.302576 37.855057,20.082300 
	C35.772171,21.783569 34.480457,23.724314 35.377838,26.524475 
	C36.309841,29.432665 38.153030,30.551723 41.354744,30.468943 
	C49.844479,30.249439 58.345112,30.492645 66.839226,30.382757 
	C70.640633,30.333578 72.775208,31.816141 71.954613,35.690174 
	C70.801872,41.132313 75.342773,45.386925 74.542892,50.872330 
	C73.998856,54.603256 73.187195,57.141102 69.041786,56.761841 
	C66.016327,56.485043 65.919273,58.061417 66.006752,60.284767 
	C66.117989,63.112144 65.985718,65.948265 66.039391,68.779083 
	C66.068184,70.297943 65.650948,71.543259 63.979603,71.505875 
	C62.324451,71.468849 61.943226,70.191109 61.969490,68.691170 
	C62.021973,65.693596 61.882320,62.689793 62.018864,59.697548 
	C62.112232,57.651573 61.664829,56.490509 59.318752,56.818851 
	C58.338711,56.956013 57.322990,56.838596 56.323490,56.836254 
	C48.215618,56.817268 48.207169,56.816982 47.985386,64.972374 
	C47.936119,66.784012 48.336079,69.104965 45.589787,68.911057 
	C43.081089,68.733917 44.001228,66.403778 43.928646,64.916161 
	C43.798672,62.252319 43.892014,59.577583 43.160583,56.889153 
	C41.349182,58.845142 42.116756,61.139820 41.784771,63.240307 
	C41.459198,65.300186 43.130341,68.860428 39.682030,68.884689 
	C35.992428,68.910637 37.558670,65.199684 37.246056,63.007591 
	C37.036469,61.537941 37.193130,60.014683 37.203545,58.515537 
	C37.209915,57.599117 36.998329,56.808933 35.881847,56.955696 
	C35.065010,57.063068 35.059612,57.830647 35.056412,58.477448 
	C35.043236,61.142693 35.050632,63.808029 35.038925,66.473289 
	C35.033653,67.673462 35.003189,68.924545 33.375473,69.012794 
	C31.708906,69.103149 30.965761,68.171097 30.967352,66.562004 
	C30.967682,66.228912 30.991323,65.891396 30.947798,65.563408 
	C30.566679,62.691345 32.355007,58.070335 30.045755,57.274754 
	C26.168903,55.939102 21.507397,56.774361 17.181822,56.898262 
	C15.352591,56.950657 16.070347,58.645813 16.040409,59.648228 
	C15.950941,62.644001 15.973833,65.644936 16.029032,68.642456 
	C16.056341,70.125336 15.706114,71.461929 14.083231,71.534302 
	C12.468445,71.606300 11.907617,70.343307 11.917942,68.836197 
	C11.930496,67.003891 11.903002,65.171272 11.919436,63.339031 
	C11.950576,59.867275 13.155686,55.767498 6.959564,56.551483 
	C5.211052,56.772720 3.598740,55.011990 3.897370,52.764530 
	C4.373541,49.180901 2.541879,45.340668 6.033486,42.003403 
	C7.240165,40.850063 6.421287,37.558201 6.492670,35.242104 
	C6.556356,33.175751 6.649374,30.780430 9.228160,30.662212 
	C12.376096,30.517906 13.803872,28.421612 15.574000,26.480848 
	C21.295877,20.207399 27.084314,13.994653 32.805698,7.720754 
	C34.467159,5.898846 36.038738,4.624894 38.131355,7.689828 
z"/>
<path fill="#121212" opacity="1.000000" stroke="none" 
	d="
M11.228385,7.142416 
	C13.796121,3.013986 17.451189,5.243606 20.502468,5.309739 
	C23.182201,5.367820 21.737125,8.213037 21.933405,9.809618 
	C22.154850,11.610937 22.114548,13.486956 21.879377,15.290228 
	C21.631847,17.188282 20.321093,18.085798 18.358324,18.058027 
	C16.657633,18.033962 15.241226,17.387331 15.109159,15.667535 
	C14.971597,13.876190 16.401539,12.957695 18.045404,13.019818 
	C20.729771,13.121264 19.920980,11.217956 19.880131,9.952404 
	C19.777710,6.779212 17.214348,8.385139 15.721756,8.042288 
	C14.380314,7.734156 13.012946,7.776315 13.169018,9.902187 
	C13.302793,11.724355 13.239060,13.563351 13.214046,15.394238 
	C13.185221,17.504042 11.747354,18.355837 9.964654,18.448551 
	C8.699177,18.514366 7.198153,18.365820 6.729592,16.725664 
	C6.133720,14.639868 7.396103,13.403581 9.106925,13.110168 
	C13.161602,12.414767 10.421653,9.376236 11.228385,7.142416 
z"/>
<path fill="#101010" opacity="1.000000" stroke="none" 
	d="
M59.391586,22.662184 
	C58.933163,24.651230 57.764751,25.568083 56.244766,25.916262 
	C54.573002,26.299204 53.216625,25.469530 52.606693,23.974302 
	C51.765324,21.911711 53.386883,21.043720 54.872635,20.264622 
	C55.974514,19.686815 57.636742,20.548800 57.881805,18.049887 
	C58.543026,11.307364 59.457047,10.697424 67.018173,9.991348 
	C67.018173,13.323274 67.128990,16.637861 66.989319,19.941860 
	C66.825356,23.820414 65.039017,24.610647 60.934517,22.378399 
	C59.303474,19.478666 62.769341,18.713354 62.799744,16.265583 
	C59.831673,17.519897 60.410542,20.352783 59.391586,22.662184 
z"/>
<path fill="#EAEBEB" opacity="1.000000" stroke="none" 
	d="
M59.489426,22.896461 
	C59.664036,20.030231 56.569561,15.859895 62.220886,14.725738 
	C63.243736,14.520462 64.523880,13.163715 65.076775,14.778986 
	C65.463394,15.908496 66.028694,17.839832 63.906223,18.479872 
	C62.433632,18.923935 61.060200,19.422861 60.818230,21.646820 
	C60.400452,22.293932 60.043373,22.546820 59.489426,22.896461 
z"/>
<path fill="#E5E6E6" opacity="1.000000" stroke="none" 
	d="
M67.703308,42.306419 
	C71.870895,44.311859 70.306747,48.081211 70.260490,51.345459 
	C70.237389,52.976082 68.530701,52.585354 67.459908,52.587036 
	C48.477425,52.616894 29.494791,52.640568 10.512475,52.578114 
	C7.734517,52.568974 6.651062,48.299530 8.758934,44.841370 
	C9.755204,43.206894 10.702115,41.674488 10.394057,39.787598 
	C9.642632,35.185047 11.465635,33.988953 16.037642,34.081501 
	C31.183239,34.388103 46.338856,34.200378 61.490627,34.201191 
	C68.226295,34.201553 68.226295,34.200340 67.920509,41.683453 
	C65.448158,47.229050 60.632637,45.104527 56.680885,45.663197 
	C55.945278,45.767193 48.575382,45.799065 47.762493,46.219463 
	C45.754086,47.258152 44.614971,44.787205 41.999596,45.395294 
	C38.087700,46.304825 33.396061,46.041473 29.083649,45.243240 
	C29.083649,45.243240 20.132215,45.969341 20.132215,45.969341 
	C19.363556,46.495949 18.520372,46.575596 17.849667,45.940739 
	C14.855012,43.106167 14.554440,46.420673 13.111348,47.672050 
	C15.011315,49.121521 16.902996,48.621140 18.664553,48.626984 
	C32.449837,48.672733 46.235344,48.656700 60.020775,48.650230 
	C66.417915,48.647224 66.417908,48.637306 67.703308,42.306419 
z"/>
<path fill="#F5F6F6" opacity="1.000000" stroke="none" 
	d="
M31.990662,29.657803 
	C27.629436,30.113142 23.269104,30.113142 17.929474,30.113142 
	C23.820349,23.694998 29.112904,17.913145 34.436390,12.159914 
	C34.839203,11.724586 35.498741,11.176887 35.974754,11.232348 
	C36.953850,11.346426 37.012638,12.385515 37.166466,13.166820 
	C37.491035,14.815370 36.715042,16.038807 35.466698,16.994534 
	C31.271235,20.206560 30.055502,24.252258 31.990662,29.657803 
z"/>
<path fill="#797979" opacity="1.000000" stroke="none" 
	d="
M31.990349,30.026590 
	C32.189480,30.231220 32.367947,30.460802 32.546417,30.690384 
	C32.300632,30.658777 32.054852,30.627172 31.899418,30.354355 
	C31.989769,30.113142 31.969687,30.051542 31.990349,30.026590 
z"/>
<path fill="#171717" opacity="1.000000" stroke="none" 
	d="
M67.925079,42.054573 
	C68.337585,49.767830 68.337585,49.764221 60.241879,49.760090 
	C45.075352,49.752350 29.908821,49.751602 14.742299,49.739532 
	C13.577596,49.738605 12.398499,49.770031 11.253071,49.602245 
	C10.412633,49.479137 9.508084,48.127701 9.754971,48.060188 
	C13.230793,47.109703 13.538492,42.668316 16.401274,41.708351 
	C19.114422,40.798553 17.843657,44.238075 18.743040,45.502869 
	C21.104280,45.056881 18.546642,41.302723 21.871746,41.468472 
	C25.350695,41.641884 22.926567,44.856098 24.607412,45.918324 
	C27.180782,45.652397 24.195158,40.844254 28.180834,41.486359 
	C31.032013,41.945694 29.080379,44.627125 30.361994,45.645741 
	C32.025349,44.844769 29.443417,42.167839 32.219902,41.891579 
	C35.368340,41.578316 34.630348,44.249413 34.875374,45.951027 
	C38.035408,45.661621 35.138824,40.983280 39.008591,41.460030 
	C42.067211,41.836845 40.079006,44.552792 41.401501,45.609005 
	C43.018066,44.715828 40.516273,41.326275 44.068760,41.483658 
	C47.509811,41.636112 44.916637,44.946682 46.795815,45.962360 
	C49.287453,45.649357 46.220608,40.949909 50.203533,41.497696 
	C53.315449,41.925686 50.934807,44.756767 52.568264,45.702869 
	C54.225838,44.897324 51.790779,41.430565 55.196655,41.505135 
	C58.488590,41.577213 56.072388,44.575665 57.527405,45.571281 
	C58.948833,44.626247 56.723488,41.318176 60.225121,41.518108 
	C63.640549,41.713120 60.765461,45.113140 63.091541,46.031734 
	C64.945854,45.264549 62.677944,39.876682 67.592834,41.910652 
	C67.985374,42.138817 67.940964,42.085445 67.925079,42.054573 
z"/>
<path fill="#000000" opacity="1.000000" stroke="none" 
	d="
M33.663727,35.181290 
	C34.125706,37.375565 32.776070,37.012779 31.734644,36.888771 
	C31.476042,36.857979 31.060490,36.142170 31.117830,35.810520 
	C31.356365,34.430885 32.483971,34.885822 33.663727,35.181290 
z"/>
</svg>